<svg width="215" height="55" viewBox="0 0 215 55" fill="none" xmlns="http://www.w3.org/2000/svg">
<path d="M78.9355 23.3369C78.9355 22.6126 78.7484 22.0674 78.374 21.7012C78.0078 21.3268 77.3364 20.9403 76.3599 20.5415C74.5776 19.866 73.2959 19.0767 72.5146 18.1733C71.7334 17.2619 71.3428 16.1877 71.3428 14.9507C71.3428 13.4533 71.8717 12.2529 72.9297 11.3496C73.9958 10.4382 75.3467 9.98242 76.9824 9.98242C78.0729 9.98242 79.0454 10.2144 79.8999 10.6782C80.7544 11.134 81.4095 11.7809 81.8652 12.6191C82.3291 13.4574 82.561 14.4095 82.561 15.4756H78.9844C78.9844 14.6455 78.8053 14.0148 78.4473 13.5835C78.0973 13.144 77.5887 12.9243 76.9214 12.9243C76.2948 12.9243 75.8065 13.1115 75.4565 13.4858C75.1066 13.8521 74.9316 14.3485 74.9316 14.9751C74.9316 15.4634 75.127 15.9069 75.5176 16.3057C75.9082 16.6963 76.5999 17.1032 77.5928 17.5264C79.3262 18.153 80.5835 18.922 81.3647 19.8335C82.1541 20.745 82.5488 21.9046 82.5488 23.3125C82.5488 24.8587 82.0565 26.0672 81.0718 26.938C80.0871 27.8088 78.7484 28.2441 77.0557 28.2441C75.9082 28.2441 74.8625 28.0081 73.9185 27.5361C72.9744 27.0641 72.2339 26.3887 71.6968 25.5098C71.1678 24.6309 70.9033 23.5933 70.9033 22.397H74.5044C74.5044 23.4224 74.7038 24.167 75.1025 24.6309C75.5013 25.0947 76.1523 25.3267 77.0557 25.3267C78.3089 25.3267 78.9355 24.6634 78.9355 23.3369ZM88.0054 14.792L88.103 16.0127C88.8761 15.0361 89.8975 14.5479 91.167 14.5479C92.4854 14.5479 93.4172 15.1419 93.9624 16.3301C94.7192 15.1419 95.7975 14.5479 97.1973 14.5479C99.5085 14.5479 100.693 16.147 100.75 19.3452V28H97.2949V19.5649C97.2949 18.8 97.1891 18.2547 96.9775 17.9292C96.766 17.6037 96.4079 17.4409 95.9033 17.4409C95.2604 17.4409 94.7803 17.8356 94.4629 18.625L94.4873 19.04V28H91.0327V19.5894C91.0327 18.8325 90.931 18.2873 90.7275 17.9536C90.5241 17.6118 90.1619 17.4409 89.6411 17.4409C89.047 17.4409 88.575 17.7624 88.2251 18.4053V28H84.7705V14.792H88.0054ZM109.587 28C109.49 27.7965 109.392 27.4548 109.294 26.9746C108.676 27.821 107.838 28.2441 106.78 28.2441C105.673 28.2441 104.753 27.8779 104.021 27.1455C103.297 26.4131 102.935 25.465 102.935 24.3013C102.935 22.9178 103.374 21.8477 104.253 21.0908C105.14 20.334 106.414 19.9474 108.074 19.9312H109.124V18.8691C109.124 18.2751 109.022 17.856 108.818 17.6118C108.615 17.3677 108.318 17.2456 107.927 17.2456C107.065 17.2456 106.633 17.7502 106.633 18.7593H103.179C103.179 17.5386 103.634 16.5335 104.546 15.7441C105.465 14.9466 106.625 14.5479 108.025 14.5479C109.473 14.5479 110.592 14.9263 111.382 15.6831C112.179 16.4318 112.578 17.506 112.578 18.9058V25.1191C112.594 26.2585 112.757 27.1496 113.066 27.7925V28H109.587ZM107.549 25.5342C107.931 25.5342 108.257 25.4569 108.525 25.3022C108.794 25.1476 108.993 24.9645 109.124 24.7529V22.0063H108.293C107.708 22.0063 107.244 22.1935 106.902 22.5679C106.568 22.9422 106.401 23.4427 106.401 24.0693C106.401 25.0459 106.784 25.5342 107.549 25.5342ZM121.599 18.1245L120.452 18.0269C119.508 18.0269 118.869 18.4419 118.535 19.272V28H115.068V14.792H118.328L118.425 16.2202C118.971 15.1053 119.723 14.5479 120.684 14.5479C121.074 14.5479 121.392 14.6007 121.636 14.7065L121.599 18.1245ZM128.008 11.5449V14.792H129.778V17.3921H128.008V23.9473C128.008 24.4681 128.077 24.8262 128.215 25.0215C128.362 25.2168 128.639 25.3145 129.045 25.3145C129.379 25.3145 129.652 25.286 129.863 25.229L129.839 27.9146C129.253 28.1343 128.618 28.2441 127.935 28.2441C125.705 28.2441 124.578 26.9665 124.553 24.4111V17.3921H123.027V14.792H124.553V11.5449H128.008ZM137.615 28V10.2266H142.314C144.39 10.2266 146.042 10.8857 147.271 12.2041C148.507 13.5225 149.138 15.3291 149.163 17.624V20.5049C149.163 22.8405 148.544 24.6756 147.307 26.0103C146.078 27.3368 144.382 28 142.217 28H137.615ZM141.204 13.2173V25.0215H142.278C143.474 25.0215 144.316 24.7082 144.805 24.0815C145.293 23.4468 145.549 22.3563 145.574 20.8101V17.7217C145.574 16.0615 145.342 14.9059 144.878 14.2549C144.414 13.5957 143.625 13.2498 142.51 13.2173H141.204ZM156.914 28.2441C155.14 28.2441 153.757 27.7152 152.764 26.6572C151.771 25.5993 151.274 24.0856 151.274 22.1162V21.0664C151.274 18.9831 151.73 17.3758 152.642 16.2446C153.553 15.1134 154.859 14.5479 156.56 14.5479C158.22 14.5479 159.469 15.0809 160.308 16.147C161.146 17.2049 161.573 18.7756 161.589 20.8589V22.5557H154.717C154.766 23.5322 154.981 24.2484 155.364 24.7041C155.746 25.1517 156.336 25.3755 157.134 25.3755C158.289 25.3755 159.254 24.9808 160.027 24.1914L161.382 26.2788C160.959 26.8647 160.344 27.3408 159.539 27.707C158.733 28.0651 157.858 28.2441 156.914 28.2441ZM154.741 20.1387H158.196V19.8213C158.18 19.0319 158.049 18.4338 157.805 18.0269C157.561 17.62 157.138 17.4165 156.536 17.4165C155.933 17.4165 155.494 17.6322 155.217 18.0635C154.949 18.4948 154.79 19.1865 154.741 20.1387ZM167.705 23.1172L169.377 14.792H172.979L169.353 28H166.057L162.419 14.792H166.033L167.705 23.1172ZM178.228 28H174.761V14.792H178.228V28ZM174.602 11.374C174.602 10.8369 174.773 10.3975 175.115 10.0557C175.457 9.71387 175.912 9.54297 176.482 9.54297C177.052 9.54297 177.507 9.71387 177.849 10.0557C178.191 10.3975 178.362 10.8369 178.362 11.374C178.362 11.903 178.191 12.3424 177.849 12.6924C177.515 13.0423 177.06 13.2173 176.482 13.2173C175.904 13.2173 175.444 13.0423 175.103 12.6924C174.769 12.3424 174.602 11.903 174.602 11.374ZM185.674 25.3755C186.675 25.3755 187.183 24.7244 187.2 23.4224H190.447C190.431 24.8628 189.987 26.0265 189.116 26.9136C188.245 27.8006 187.122 28.2441 185.747 28.2441C184.046 28.2441 182.748 27.7152 181.853 26.6572C180.958 25.5993 180.502 24.0409 180.486 21.9819V20.9321C180.486 18.8569 180.925 17.2741 181.804 16.1836C182.691 15.0931 183.997 14.5479 185.723 14.5479C187.179 14.5479 188.327 14.9995 189.165 15.9028C190.003 16.798 190.431 18.0716 190.447 19.7236H187.2C187.192 18.9831 187.069 18.4134 186.833 18.0146C186.597 17.6159 186.207 17.4165 185.662 17.4165C185.059 17.4165 184.628 17.6322 184.368 18.0635C184.107 18.4867 183.969 19.3127 183.953 20.5415V21.8843C183.953 22.9585 184.006 23.7113 184.111 24.1426C184.217 24.5658 184.392 24.8791 184.636 25.0825C184.88 25.2778 185.226 25.3755 185.674 25.3755ZM197.734 28.2441C195.96 28.2441 194.577 27.7152 193.584 26.6572C192.591 25.5993 192.095 24.0856 192.095 22.1162V21.0664C192.095 18.9831 192.55 17.3758 193.462 16.2446C194.373 15.1134 195.68 14.5479 197.38 14.5479C199.041 14.5479 200.29 15.0809 201.128 16.147C201.966 17.2049 202.393 18.7756 202.41 20.8589V22.5557H195.537C195.586 23.5322 195.802 24.2484 196.184 24.7041C196.567 25.1517 197.157 25.3755 197.954 25.3755C199.11 25.3755 200.074 24.9808 200.847 24.1914L202.202 26.2788C201.779 26.8647 201.165 27.3408 200.359 27.707C199.553 28.0651 198.678 28.2441 197.734 28.2441ZM195.562 20.1387H199.016V19.8213C199 19.0319 198.87 18.4338 198.625 18.0269C198.381 17.62 197.958 17.4165 197.356 17.4165C196.754 17.4165 196.314 17.6322 196.038 18.0635C195.769 18.4948 195.61 19.1865 195.562 20.1387Z" fill="#F2F5F7"/>
<path d="M72.5664 45.3086L74.2891 39.6602H75.8008L73.2578 46.9668C73.1992 47.123 73.123 47.293 73.0293 47.4766C72.9355 47.6602 72.8125 47.834 72.6602 47.998C72.5117 48.166 72.3262 48.3008 72.1035 48.4023C71.8809 48.5078 71.6113 48.5605 71.2949 48.5605C71.1699 48.5605 71.0488 48.5488 70.9316 48.5254C70.8184 48.5059 70.7109 48.4844 70.6094 48.4609L70.6035 47.3828C70.6426 47.3867 70.6895 47.3906 70.7441 47.3945C70.8027 47.3984 70.8496 47.4004 70.8848 47.4004C71.1191 47.4004 71.3145 47.3711 71.4707 47.3125C71.627 47.2578 71.7539 47.168 71.8516 47.043C71.9531 46.918 72.0391 46.75 72.1094 46.5391L72.5664 45.3086ZM71.5938 39.6602L73.0996 44.4062L73.3516 45.8945L72.373 46.1465L70.0703 39.6602H71.5938ZM80.377 44.2891L82.2637 39.6602H83.4883L80.8574 46H79.8965L77.2715 39.6602H78.4961L80.377 44.2891ZM78.1328 39.6602V46H76.7207V39.6602H78.1328ZM82.6211 46V39.6602H84.0391V46H82.6211ZM89.9512 42.3086V43.4219H86.6699V42.3086H89.9512ZM87.0801 39.6602V46H85.668V39.6602H87.0801ZM90.9707 39.6602V46H89.5586V39.6602H90.9707ZM93.5254 41.6758H95.3945C95.9414 41.6758 96.4062 41.7676 96.7891 41.9512C97.1719 42.1348 97.4629 42.3906 97.6621 42.7188C97.8652 43.043 97.9668 43.4141 97.9668 43.832C97.9668 44.1406 97.9102 44.4277 97.7969 44.6934C97.6836 44.9551 97.5156 45.1836 97.293 45.3789C97.0742 45.5742 96.8047 45.7266 96.4844 45.8359C96.168 45.9453 95.8047 46 95.3945 46H92.5879V39.6602H94.0059V44.8809H95.3945C95.6758 44.8809 95.9004 44.832 96.0684 44.7344C96.2363 44.6367 96.3574 44.5098 96.4316 44.3535C96.5098 44.1973 96.5488 44.0312 96.5488 43.8555C96.5488 43.6758 96.5098 43.5059 96.4316 43.3457C96.3574 43.1855 96.2363 43.0547 96.0684 42.9531C95.9004 42.8516 95.6758 42.8008 95.3945 42.8008H93.5254V41.6758ZM100.463 39.6602V46H99.0508V39.6602H100.463ZM104.928 46.1172C104.459 46.1172 104.035 46.041 103.656 45.8887C103.281 45.7324 102.961 45.5156 102.695 45.2383C102.434 44.9609 102.232 44.6348 102.092 44.2598C101.951 43.8848 101.881 43.4805 101.881 43.0469V42.8125C101.881 42.3164 101.953 41.8672 102.098 41.4648C102.242 41.0625 102.443 40.7188 102.701 40.4336C102.959 40.1445 103.264 39.9238 103.615 39.7715C103.967 39.6191 104.348 39.543 104.758 39.543C105.211 39.543 105.607 39.6191 105.947 39.7715C106.287 39.9238 106.568 40.1387 106.791 40.416C107.018 40.6895 107.186 41.0156 107.295 41.3945C107.408 41.7734 107.465 42.1914 107.465 42.6484V43.252H102.566V42.2383H106.07V42.127C106.062 41.873 106.012 41.6348 105.918 41.4121C105.828 41.1895 105.689 41.0098 105.502 40.873C105.314 40.7363 105.064 40.668 104.752 40.668C104.518 40.668 104.309 40.7188 104.125 40.8203C103.945 40.918 103.795 41.0605 103.674 41.248C103.553 41.4355 103.459 41.6621 103.393 41.9277C103.33 42.1895 103.299 42.4844 103.299 42.8125V43.0469C103.299 43.3242 103.336 43.582 103.41 43.8203C103.488 44.0547 103.602 44.2598 103.75 44.4355C103.898 44.6113 104.078 44.75 104.289 44.8516C104.5 44.9492 104.74 44.998 105.01 44.998C105.35 44.998 105.652 44.9297 105.918 44.793C106.184 44.6562 106.414 44.4629 106.609 44.2129L107.354 44.9336C107.217 45.1328 107.039 45.3242 106.82 45.5078C106.602 45.6875 106.334 45.834 106.018 45.9473C105.705 46.0605 105.342 46.1172 104.928 46.1172ZM114.496 39.6602V46H113.078V39.6602H114.496ZM116.576 39.6602V40.7734H111.033V39.6602H116.576ZM119.881 46.1172C119.412 46.1172 118.988 46.041 118.609 45.8887C118.234 45.7324 117.914 45.5156 117.648 45.2383C117.387 44.9609 117.186 44.6348 117.045 44.2598C116.904 43.8848 116.834 43.4805 116.834 43.0469V42.8125C116.834 42.3164 116.906 41.8672 117.051 41.4648C117.195 41.0625 117.396 40.7188 117.654 40.4336C117.912 40.1445 118.217 39.9238 118.568 39.7715C118.92 39.6191 119.301 39.543 119.711 39.543C120.164 39.543 120.561 39.6191 120.9 39.7715C121.24 39.9238 121.521 40.1387 121.744 40.416C121.971 40.6895 122.139 41.0156 122.248 41.3945C122.361 41.7734 122.418 42.1914 122.418 42.6484V43.252H117.52V42.2383H121.023V42.127C121.016 41.873 120.965 41.6348 120.871 41.4121C120.781 41.1895 120.643 41.0098 120.455 40.873C120.268 40.7363 120.018 40.668 119.705 40.668C119.471 40.668 119.262 40.7188 119.078 40.8203C118.898 40.918 118.748 41.0605 118.627 41.248C118.506 41.4355 118.412 41.6621 118.346 41.9277C118.283 42.1895 118.252 42.4844 118.252 42.8125V43.0469C118.252 43.3242 118.289 43.582 118.363 43.8203C118.441 44.0547 118.555 44.2598 118.703 44.4355C118.852 44.6113 119.031 44.75 119.242 44.8516C119.453 44.9492 119.693 44.998 119.963 44.998C120.303 44.998 120.605 44.9297 120.871 44.793C121.137 44.6562 121.367 44.4629 121.562 44.2129L122.307 44.9336C122.17 45.1328 121.992 45.3242 121.773 45.5078C121.555 45.6875 121.287 45.834 120.971 45.9473C120.658 46.0605 120.295 46.1172 119.881 46.1172ZM124.598 39.6602L125.805 41.7637L127.035 39.6602H128.588L126.666 42.7715L128.664 46H127.111L125.822 43.8086L124.533 46H122.975L124.967 42.7715L123.051 39.6602H124.598ZM133.885 42.3086V43.4219H130.604V42.3086H133.885ZM131.014 39.6602V46H129.602V39.6602H131.014ZM134.904 39.6602V46H133.492V39.6602H134.904ZM136.141 42.9004V42.7656C136.141 42.3086 136.207 41.8848 136.34 41.4941C136.473 41.0996 136.664 40.7578 136.914 40.4688C137.168 40.1758 137.477 39.9492 137.84 39.7891C138.207 39.625 138.621 39.543 139.082 39.543C139.547 39.543 139.961 39.625 140.324 39.7891C140.691 39.9492 141.002 40.1758 141.256 40.4688C141.51 40.7578 141.703 41.0996 141.836 41.4941C141.969 41.8848 142.035 42.3086 142.035 42.7656V42.9004C142.035 43.3574 141.969 43.7812 141.836 44.1719C141.703 44.5625 141.51 44.9043 141.256 45.1973C141.002 45.4863 140.693 45.7129 140.33 45.877C139.967 46.0371 139.555 46.1172 139.094 46.1172C138.629 46.1172 138.213 46.0371 137.846 45.877C137.482 45.7129 137.174 45.4863 136.92 45.1973C136.666 44.9043 136.473 44.5625 136.34 44.1719C136.207 43.7812 136.141 43.3574 136.141 42.9004ZM137.553 42.7656V42.9004C137.553 43.1855 137.582 43.4551 137.641 43.709C137.699 43.9629 137.791 44.1855 137.916 44.377C138.041 44.5684 138.201 44.7188 138.396 44.8281C138.592 44.9375 138.824 44.9922 139.094 44.9922C139.355 44.9922 139.582 44.9375 139.773 44.8281C139.969 44.7188 140.129 44.5684 140.254 44.377C140.379 44.1855 140.471 43.9629 140.529 43.709C140.592 43.4551 140.623 43.1855 140.623 42.9004V42.7656C140.623 42.4844 140.592 42.2188 140.529 41.9688C140.471 41.7148 140.377 41.4902 140.248 41.2949C140.123 41.0996 139.963 40.9473 139.768 40.8379C139.576 40.7246 139.348 40.668 139.082 40.668C138.816 40.668 138.586 40.7246 138.391 40.8379C138.199 40.9473 138.041 41.0996 137.916 41.2949C137.791 41.4902 137.699 41.7148 137.641 41.9688C137.582 42.2188 137.553 42.4844 137.553 42.7656ZM147.385 39.6602V40.7852H144.291V39.6602H147.385ZM148.492 39.6602V46H147.08V39.6602H148.492ZM143.945 39.6602H145.34L145.17 42.7949C145.146 43.2598 145.1 43.6699 145.029 44.0254C144.963 44.377 144.873 44.6797 144.76 44.9336C144.646 45.1836 144.508 45.3867 144.344 45.543C144.18 45.6992 143.988 45.8145 143.77 45.8887C143.551 45.9629 143.305 46 143.031 46H142.592L142.586 44.8398L142.809 44.8223C142.953 44.8105 143.078 44.7734 143.184 44.7109C143.289 44.6445 143.379 44.5508 143.453 44.4297C143.531 44.3086 143.594 44.1523 143.641 43.9609C143.691 43.7695 143.73 43.543 143.758 43.2812C143.789 43.0195 143.812 42.7148 143.828 42.3672L143.945 39.6602ZM149.723 42.9004V42.7656C149.723 42.3086 149.789 41.8848 149.922 41.4941C150.055 41.0996 150.246 40.7578 150.496 40.4688C150.75 40.1758 151.059 39.9492 151.422 39.7891C151.789 39.625 152.203 39.543 152.664 39.543C153.129 39.543 153.543 39.625 153.906 39.7891C154.273 39.9492 154.584 40.1758 154.838 40.4688C155.092 40.7578 155.285 41.0996 155.418 41.4941C155.551 41.8848 155.617 42.3086 155.617 42.7656V42.9004C155.617 43.3574 155.551 43.7812 155.418 44.1719C155.285 44.5625 155.092 44.9043 154.838 45.1973C154.584 45.4863 154.275 45.7129 153.912 45.877C153.549 46.0371 153.137 46.1172 152.676 46.1172C152.211 46.1172 151.795 46.0371 151.428 45.877C151.064 45.7129 150.756 45.4863 150.502 45.1973C150.248 44.9043 150.055 44.5625 149.922 44.1719C149.789 43.7812 149.723 43.3574 149.723 42.9004ZM151.135 42.7656V42.9004C151.135 43.1855 151.164 43.4551 151.223 43.709C151.281 43.9629 151.373 44.1855 151.498 44.377C151.623 44.5684 151.783 44.7188 151.979 44.8281C152.174 44.9375 152.406 44.9922 152.676 44.9922C152.938 44.9922 153.164 44.9375 153.355 44.8281C153.551 44.7188 153.711 44.5684 153.836 44.377C153.961 44.1855 154.053 43.9629 154.111 43.709C154.174 43.4551 154.205 43.1855 154.205 42.9004V42.7656C154.205 42.4844 154.174 42.2188 154.111 41.9688C154.053 41.7148 153.959 41.4902 153.83 41.2949C153.705 41.0996 153.545 40.9473 153.35 40.8379C153.158 40.7246 152.93 40.668 152.664 40.668C152.398 40.668 152.168 40.7246 151.973 40.8379C151.781 40.9473 151.623 41.0996 151.498 41.2949C151.373 41.4902 151.281 41.7148 151.223 41.9688C151.164 42.2188 151.135 42.4844 151.135 42.7656ZM161.02 39.6602V40.7852H158.254V46H156.842V39.6602H161.02ZM163.299 43.9375L165.789 39.6602H167.201V46H165.789V41.7168L163.299 46H161.887V39.6602H163.299V43.9375ZM170.154 43.9375L172.645 39.6602H174.057V46H172.645V41.7168L170.154 46H168.742V39.6602H170.154V43.9375Z" fill="white" fill-opacity="0.7"/>
<path d="M33.9167 14.6664C35.1102 14.6664 36.1185 15.4355 36.498 16.4997H46.002C46.3815 15.4355 47.3899 14.6664 48.5834 14.6664C50.0995 14.6664 51.3334 15.9002 51.3334 17.4164C51.3334 18.9325 50.0995 20.1663 48.5834 20.1663C47.3899 20.1663 46.3815 19.3973 46.002 18.333H36.4971C36.1176 19.3973 35.1093 20.1663 33.9158 20.1663C32.3996 20.1663 31.1658 18.9325 31.1658 17.4164C31.1658 15.9002 32.4005 14.6664 33.9167 14.6664ZM48.5834 18.333C49.0884 18.333 49.5 17.9224 49.5 17.4164C49.5 16.9104 49.0884 16.4997 48.5834 16.4997C48.0783 16.4997 47.6667 16.9104 47.6667 17.4164C47.6667 17.9224 48.0783 18.333 48.5834 18.333ZM33.9167 18.333C34.4218 18.333 34.8334 17.9224 34.8334 17.4164C34.8334 16.9104 34.4218 16.4997 33.9167 16.4997C33.4116 16.4997 33 16.9104 33 17.4164C33 17.9224 33.4116 18.333 33.9167 18.333Z" fill="#00B2FF"/>
<path d="M26.5834 20.335V14.6664C26.5834 14.4226 26.6796 14.1898 26.8519 14.0183L30.5186 10.3517C30.69 10.1794 30.9238 10.0832 31.1667 10.0832H34.0854C34.4649 9.01893 35.4732 8.24986 36.6667 8.24986C38.1829 8.24986 39.4167 9.48368 39.4167 10.9998C39.4167 12.516 38.1829 13.7498 36.6667 13.7498C35.4732 13.7498 34.4649 12.9807 34.0854 11.9165H31.5462L28.4167 15.0459V20.335C29.4809 20.7145 30.25 21.7228 30.25 22.9163C30.25 24.4324 29.0162 25.6662 27.5 25.6662C25.9839 25.6662 24.75 24.4324 24.75 22.9163C24.75 21.7228 25.5191 20.7145 26.5834 20.335ZM36.6667 11.9165C37.1718 11.9165 37.5834 11.5058 37.5834 10.9998C37.5834 10.4938 37.1718 10.0832 36.6667 10.0832C36.1616 10.0832 35.75 10.4938 35.75 10.9998C35.75 11.5058 36.1616 11.9165 36.6667 11.9165ZM27.5 23.8329C28.0051 23.8329 28.4167 23.4223 28.4167 22.9163C28.4167 22.4103 28.0051 21.9996 27.5 21.9996C26.9949 21.9996 26.5834 22.4103 26.5834 22.9163C26.5834 23.4223 26.9949 23.8329 27.5 23.8329Z" fill="#00B2FF"/>
<path d="M10.0833 23.8329C10.5068 23.8329 10.9028 23.9365 11.2613 24.1088L12.8333 22.5368V13.7498C12.8333 13.5059 12.9296 13.2731 13.1019 13.1017L22.2759 3.92785C22.1036 3.56944 22 3.17345 22 2.74995C22 1.23381 23.2338 0 24.75 0C26.2662 0 27.5 1.23381 27.5 2.74995C27.5 4.2661 26.2662 5.49991 24.75 5.49991C24.3265 5.49991 23.9305 5.39633 23.5721 5.224L14.6667 14.1293V22.9163C14.6667 23.1601 14.5704 23.3929 14.3981 23.5644L12.5574 25.405C12.7298 25.7634 12.8333 26.1594 12.8333 26.5829C12.8333 28.099 11.5995 29.3328 10.0833 29.3328C8.56718 29.3328 7.33334 28.099 7.33334 26.5829C7.33334 25.0667 8.56718 23.8329 10.0833 23.8329ZM24.75 3.66661C25.2551 3.66661 25.6667 3.25595 25.6667 2.74995C25.6667 2.24396 25.2551 1.8333 24.75 1.8333C24.2449 1.8333 23.8333 2.24396 23.8333 2.74995C23.8333 3.25595 24.2449 3.66661 24.75 3.66661ZM10.0833 27.4995C10.5884 27.4995 11 27.0889 11 26.5829C11 26.0769 10.5884 25.6662 10.0833 25.6662C9.57826 25.6662 9.16668 26.0769 9.16668 26.5829C9.16668 27.0889 9.57826 27.4995 10.0833 27.4995Z" fill="#00B2FF"/>
<path d="M1.83336 13.0018V9.16651C1.83336 8.92268 1.92961 8.68986 2.10195 8.51844L8.51861 2.10188C8.69003 1.92955 8.92378 1.8333 9.1667 1.8333H13.9187C14.2982 0.769071 15.3065 0 16.5 0C18.0162 0 19.25 1.23381 19.25 2.74995C19.25 4.2661 18.0162 5.49991 16.5 5.49991C15.3065 5.49991 14.2982 4.73084 13.9187 3.66661H9.5462L3.6667 9.54601V13.0018C4.73095 13.3813 5.50003 14.3896 5.50003 15.5831C5.50003 17.0992 4.2662 18.333 2.75003 18.333C1.23386 18.333 3.01003e-05 17.0992 3.01003e-05 15.5831C3.01003e-05 14.3896 0.769113 13.3813 1.83336 13.0018ZM16.5 3.66661C17.0051 3.66661 17.4167 3.25595 17.4167 2.74995C17.4167 2.24396 17.0051 1.8333 16.5 1.8333C15.9949 1.8333 15.5834 2.24396 15.5834 2.74995C15.5834 3.25595 15.9949 3.66661 16.5 3.66661ZM2.75003 16.4997C3.25511 16.4997 3.6667 16.0891 3.6667 15.5831C3.6667 15.0771 3.25511 14.6664 2.75003 14.6664C2.24495 14.6664 1.83336 15.0771 1.83336 15.5831C1.83336 16.0891 2.24495 16.4997 2.75003 16.4997Z" fill="#00B2FF"/>
<path d="M14.6658 49.6688V36.4974C13.6024 36.1179 12.8334 35.1096 12.8334 33.9161C12.8334 32.4 14.0672 31.1662 15.5834 31.1662C16.7769 31.1662 17.7852 31.9352 18.1647 32.9995H27.6687C28.0482 31.9352 29.0565 31.1662 30.25 31.1662C31.4435 31.1662 32.4519 31.9352 32.8314 32.9995H38.1205L41.5259 29.5941C41.3536 29.2357 41.25 28.8397 41.25 28.4162C41.25 26.9001 42.4839 25.6663 44 25.6663C45.5162 25.6663 46.75 26.9001 46.75 28.4162C46.75 29.9324 45.5162 31.1662 44 31.1662C43.5765 31.1662 43.1805 31.0626 42.8221 30.8903L39.1481 34.5642C38.9767 34.7365 38.7429 34.8328 38.5 34.8328H32.8314C32.4519 35.897 31.4435 36.6661 30.25 36.6661C29.0565 36.6661 28.0482 35.897 27.6687 34.8328H18.1638C17.8869 35.6092 17.2755 36.2206 16.4991 36.4974V49.6688C17.5634 50.0483 18.3324 51.0566 18.3324 52.2501C18.3324 53.7662 17.0986 55 15.5824 55C14.0663 55 12.8324 53.7662 12.8324 52.2501C12.8324 51.0566 13.6015 50.0483 14.6658 49.6688ZM44 29.3329C44.5051 29.3329 44.9167 28.9222 44.9167 28.4162C44.9167 27.9102 44.5051 27.4996 44 27.4996C43.4949 27.4996 43.0834 27.9102 43.0834 28.4162C43.0834 28.9222 43.4949 29.3329 44 29.3329ZM30.25 34.8328C30.7551 34.8328 31.1667 34.4221 31.1667 33.9161C31.1667 33.4101 30.7551 32.9995 30.25 32.9995C29.7449 32.9995 29.3334 33.4101 29.3334 33.9161C29.3334 34.4221 29.7449 34.8328 30.25 34.8328ZM15.5834 53.1658C16.0884 53.1658 16.5 52.7551 16.5 52.2492C16.5 51.7432 16.0884 51.3325 15.5834 51.3325C15.0783 51.3325 14.6667 51.7432 14.6667 52.2492C14.6667 52.7551 15.0783 53.1658 15.5834 53.1658ZM15.5834 34.8328C16.0884 34.8328 16.5 34.4221 16.5 33.9161C16.5 33.4101 16.0884 32.9995 15.5834 32.9995C15.0783 32.9995 14.6667 33.4101 14.6667 33.9161C14.6667 34.4221 15.0783 34.8328 15.5834 34.8328Z" fill="#00B2FF"/>
<path d="M19.25 18.5017V15.5831C19.25 15.3392 19.3463 15.1064 19.5186 14.935L30.5259 3.92785C30.3536 3.56944 30.25 3.17345 30.25 2.74995C30.25 1.23381 31.4838 0 33 0C34.1935 0 35.2018 0.76907 35.5813 1.8333H39.4167C39.9227 1.8333 40.3333 2.24305 40.3333 2.74995V5.12041L43.7388 8.52577C44.0972 8.35344 44.4932 8.24986 44.9167 8.24986C46.4328 8.24986 47.6667 9.48368 47.6667 10.9998C47.6667 12.516 46.4328 13.7498 44.9167 13.7498C43.4005 13.7498 42.1667 12.516 42.1667 10.9998C42.1667 10.5763 42.2703 10.1803 42.4426 9.82192L38.7686 6.14798C38.5963 5.97657 38.5 5.74374 38.5 5.49991V3.66661H35.5813C35.2018 4.73084 34.1935 5.49991 33 5.49991C32.5765 5.49991 32.1805 5.39633 31.8221 5.224L21.0833 15.9626V18.5017C22.1476 18.8812 22.9167 19.8895 22.9167 21.083C22.9167 22.5991 21.6828 23.8329 20.1667 23.8329C18.6505 23.8329 17.4167 22.5991 17.4167 21.083C17.4167 19.8895 18.1858 18.8812 19.25 18.5017ZM44.9167 11.9165C45.4218 11.9165 45.8333 11.5058 45.8333 10.9998C45.8333 10.4938 45.4218 10.0832 44.9167 10.0832C44.4116 10.0832 44 10.4938 44 10.9998C44 11.5058 44.4116 11.9165 44.9167 11.9165ZM33 3.66661C33.5051 3.66661 33.9167 3.25595 33.9167 2.74995C33.9167 2.24396 33.5051 1.8333 33 1.8333C32.4949 1.8333 32.0833 2.24396 32.0833 2.74995C32.0833 3.25595 32.4949 3.66661 33 3.66661ZM20.1667 21.9996C20.6718 21.9996 21.0833 21.589 21.0833 21.083C21.0833 20.577 20.6718 20.1663 20.1667 20.1663C19.6616 20.1663 19.25 20.577 19.25 21.083C19.25 21.589 19.6616 21.9996 20.1667 21.9996Z" fill="#00B2FF"/>
<path d="M22 25.6662C23.1935 25.6662 24.2018 26.4353 24.5813 27.4995H35.3705L40.6019 22.2682C40.7733 22.0959 41.0071 21.9996 41.25 21.9996H50.9538L53.1667 19.7868V12.296L46.0946 5.224C45.7362 5.39633 45.3402 5.49991 44.9167 5.49991C43.4005 5.49991 42.1667 4.2661 42.1667 2.74995C42.1667 1.23381 43.4005 0 44.9167 0C46.4328 0 47.6667 1.23381 47.6667 2.74995C47.6667 3.17345 47.5631 3.56944 47.3907 3.92785L54.7314 11.2684C54.9037 11.4398 55 11.6726 55 11.9165V20.1663C55 20.4102 54.9037 20.643 54.7314 20.8144L51.9814 23.5644C51.81 23.7367 51.5762 23.8329 51.3333 23.8329H41.6295L36.3981 29.0643C36.2267 29.2366 35.9929 29.3328 35.75 29.3328H24.5813C24.2018 30.3971 23.1935 31.1661 22 31.1661C20.4838 31.1661 19.25 29.9323 19.25 28.4162C19.25 26.9001 20.4838 25.6662 22 25.6662ZM44.9167 1.8333C44.4116 1.8333 44 2.24396 44 2.74995C44 3.25595 44.4116 3.66661 44.9167 3.66661C45.4217 3.66661 45.8333 3.25595 45.8333 2.74995C45.8333 2.24396 45.4217 1.8333 44.9167 1.8333ZM22 29.3328C22.5051 29.3328 22.9167 28.9222 22.9167 28.4162C22.9167 27.9102 22.5051 27.4995 22 27.4995C21.4949 27.4995 21.0833 27.9102 21.0833 28.4162C21.0833 28.9222 21.4949 29.3328 22 29.3328Z" fill="#00B2FF"/>
<path d="M2.75001 21.9996C3.17351 21.9996 3.56951 22.1032 3.92793 22.2755L7.33334 18.8702V13.5811C6.26909 13.2016 5.50001 12.1933 5.50001 10.9998C5.50001 9.48368 6.73384 8.24986 8.25001 8.24986C9.76618 8.24986 11 9.48368 11 10.9998C11 12.1933 10.2309 13.2016 9.16668 13.5811V19.2497C9.16668 19.4935 9.07043 19.7263 8.89809 19.8978L5.2241 23.5717C5.39643 23.9301 5.50001 24.3261 5.50001 24.7496C5.50001 25.9431 4.73093 26.9514 3.66668 27.3309V28.0367L10.7314 35.1013C10.9038 35.2727 11 35.5056 11 35.7494V36.8347C12.0643 37.2142 12.8333 38.2225 12.8333 39.416C12.8333 40.6095 12.0643 41.6178 11 41.9973V44.1688C12.0643 44.5483 12.8333 45.5567 12.8333 46.7501C12.8333 48.2663 11.5995 49.5001 10.0833 49.5001C8.56718 49.5001 7.33334 48.2663 7.33334 46.7501C7.33334 45.5567 8.10243 44.5483 9.16668 44.1688V41.9973C8.10243 41.6178 7.33334 40.6095 7.33334 39.416C7.33334 38.2225 8.10243 37.2142 9.16668 36.8347V36.1289L2.10193 29.0643C1.92959 28.8929 1.83334 28.66 1.83334 28.4162V27.3309C0.769095 26.9514 1.15633e-05 25.9431 1.15633e-05 24.7496C1.15633e-05 23.2334 1.23384 21.9996 2.75001 21.9996ZM8.25001 11.9165C8.75509 11.9165 9.16668 11.5058 9.16668 10.9998C9.16668 10.4938 8.75509 10.0832 8.25001 10.0832C7.74493 10.0832 7.33334 10.4938 7.33334 10.9998C7.33334 11.5058 7.74493 11.9165 8.25001 11.9165ZM10.0833 47.6659C10.5884 47.6659 11 47.2552 11 46.7492C11 46.2432 10.5884 45.8326 10.0833 45.8326C9.57826 45.8326 9.16668 46.2432 9.16668 46.7492C9.16668 47.2552 9.57826 47.6659 10.0833 47.6659ZM10.0833 40.3327C10.5884 40.3327 11 39.922 11 39.416C11 38.91 10.5884 38.4994 10.0833 38.4994C9.57826 38.4994 9.16668 38.91 9.16668 39.416C9.16668 39.922 9.57826 40.3327 10.0833 40.3327ZM2.75001 25.6662C3.25509 25.6662 3.66668 25.2556 3.66668 24.7496C3.66668 24.2436 3.25509 23.8329 2.75001 23.8329C2.24493 23.8329 1.83334 24.2436 1.83334 24.7496C1.83334 25.2556 2.24493 25.6662 2.75001 25.6662Z" fill="#00B2FF"/>
</svg>
