<svg width="105" height="10" viewBox="0 0 105 10" fill="none" xmlns="http://www.w3.org/2000/svg">
<path d="M2.56641 6.30859L4.28906 0.660156H5.80078L3.25781 7.9668C3.19922 8.12305 3.12305 8.29297 3.0293 8.47656C2.93555 8.66016 2.8125 8.83398 2.66016 8.99805C2.51172 9.16602 2.32617 9.30078 2.10352 9.40234C1.88086 9.50781 1.61133 9.56055 1.29492 9.56055C1.16992 9.56055 1.04883 9.54883 0.931641 9.52539C0.818359 9.50586 0.710938 9.48438 0.609375 9.46094L0.603516 8.38281C0.642578 8.38672 0.689453 8.39062 0.744141 8.39453C0.802734 8.39844 0.849609 8.40039 0.884766 8.40039C1.11914 8.40039 1.31445 8.37109 1.4707 8.3125C1.62695 8.25781 1.75391 8.16797 1.85156 8.04297C1.95312 7.91797 2.03906 7.75 2.10938 7.53906L2.56641 6.30859ZM1.59375 0.660156L3.09961 5.40625L3.35156 6.89453L2.37305 7.14648L0.0703125 0.660156H1.59375ZM10.377 5.28906L12.2637 0.660156H13.4883L10.8574 7H9.89648L7.27148 0.660156H8.49609L10.377 5.28906ZM8.13281 0.660156V7H6.7207V0.660156H8.13281ZM12.6211 7V0.660156H14.0391V7H12.6211ZM19.9512 3.30859V4.42188H16.6699V3.30859H19.9512ZM17.0801 0.660156V7H15.668V0.660156H17.0801ZM20.9707 0.660156V7H19.5586V0.660156H20.9707ZM23.5254 2.67578H25.3945C25.9414 2.67578 26.4062 2.76758 26.7891 2.95117C27.1719 3.13477 27.4629 3.39062 27.6621 3.71875C27.8652 4.04297 27.9668 4.41406 27.9668 4.83203C27.9668 5.14062 27.9102 5.42773 27.7969 5.69336C27.6836 5.95508 27.5156 6.18359 27.293 6.37891C27.0742 6.57422 26.8047 6.72656 26.4844 6.83594C26.168 6.94531 25.8047 7 25.3945 7H22.5879V0.660156H24.0059V5.88086H25.3945C25.6758 5.88086 25.9004 5.83203 26.0684 5.73438C26.2363 5.63672 26.3574 5.50977 26.4316 5.35352C26.5098 5.19727 26.5488 5.03125 26.5488 4.85547C26.5488 4.67578 26.5098 4.50586 26.4316 4.3457C26.3574 4.18555 26.2363 4.05469 26.0684 3.95312C25.9004 3.85156 25.6758 3.80078 25.3945 3.80078H23.5254V2.67578ZM30.4629 0.660156V7H29.0508V0.660156H30.4629ZM34.9277 7.11719C34.459 7.11719 34.0352 7.04102 33.6562 6.88867C33.2812 6.73242 32.9609 6.51562 32.6953 6.23828C32.4336 5.96094 32.2324 5.63477 32.0918 5.25977C31.9512 4.88477 31.8809 4.48047 31.8809 4.04688V3.8125C31.8809 3.31641 31.9531 2.86719 32.0977 2.46484C32.2422 2.0625 32.4434 1.71875 32.7012 1.43359C32.959 1.14453 33.2637 0.923828 33.6152 0.771484C33.9668 0.619141 34.3477 0.542969 34.7578 0.542969C35.2109 0.542969 35.6074 0.619141 35.9473 0.771484C36.2871 0.923828 36.5684 1.13867 36.791 1.41602C37.0176 1.68945 37.1855 2.01562 37.2949 2.39453C37.4082 2.77344 37.4648 3.19141 37.4648 3.64844V4.25195H32.5664V3.23828H36.0703V3.12695C36.0625 2.87305 36.0117 2.63477 35.918 2.41211C35.8281 2.18945 35.6895 2.00977 35.502 1.87305C35.3145 1.73633 35.0645 1.66797 34.752 1.66797C34.5176 1.66797 34.3086 1.71875 34.125 1.82031C33.9453 1.91797 33.7949 2.06055 33.6738 2.24805C33.5527 2.43555 33.459 2.66211 33.3926 2.92773C33.3301 3.18945 33.2988 3.48438 33.2988 3.8125V4.04688C33.2988 4.32422 33.3359 4.58203 33.4102 4.82031C33.4883 5.05469 33.6016 5.25977 33.75 5.43555C33.8984 5.61133 34.0781 5.75 34.2891 5.85156C34.5 5.94922 34.7402 5.99805 35.0098 5.99805C35.3496 5.99805 35.6523 5.92969 35.918 5.79297C36.1836 5.65625 36.4141 5.46289 36.6094 5.21289L37.3535 5.93359C37.2168 6.13281 37.0391 6.32422 36.8203 6.50781C36.6016 6.6875 36.334 6.83398 36.0176 6.94727C35.7051 7.06055 35.3418 7.11719 34.9277 7.11719ZM44.4961 0.660156V7H43.0781V0.660156H44.4961ZM46.5762 0.660156V1.77344H41.0332V0.660156H46.5762ZM49.8809 7.11719C49.4121 7.11719 48.9883 7.04102 48.6094 6.88867C48.2344 6.73242 47.9141 6.51562 47.6484 6.23828C47.3867 5.96094 47.1855 5.63477 47.0449 5.25977C46.9043 4.88477 46.834 4.48047 46.834 4.04688V3.8125C46.834 3.31641 46.9062 2.86719 47.0508 2.46484C47.1953 2.0625 47.3965 1.71875 47.6543 1.43359C47.9121 1.14453 48.2168 0.923828 48.5684 0.771484C48.9199 0.619141 49.3008 0.542969 49.7109 0.542969C50.1641 0.542969 50.5605 0.619141 50.9004 0.771484C51.2402 0.923828 51.5215 1.13867 51.7441 1.41602C51.9707 1.68945 52.1387 2.01562 52.248 2.39453C52.3613 2.77344 52.418 3.19141 52.418 3.64844V4.25195H47.5195V3.23828H51.0234V3.12695C51.0156 2.87305 50.9648 2.63477 50.8711 2.41211C50.7812 2.18945 50.6426 2.00977 50.4551 1.87305C50.2676 1.73633 50.0176 1.66797 49.7051 1.66797C49.4707 1.66797 49.2617 1.71875 49.0781 1.82031C48.8984 1.91797 48.748 2.06055 48.627 2.24805C48.5059 2.43555 48.4121 2.66211 48.3457 2.92773C48.2832 3.18945 48.252 3.48438 48.252 3.8125V4.04688C48.252 4.32422 48.2891 4.58203 48.3633 4.82031C48.4414 5.05469 48.5547 5.25977 48.7031 5.43555C48.8516 5.61133 49.0312 5.75 49.2422 5.85156C49.4531 5.94922 49.6934 5.99805 49.9629 5.99805C50.3027 5.99805 50.6055 5.92969 50.8711 5.79297C51.1367 5.65625 51.3672 5.46289 51.5625 5.21289L52.3066 5.93359C52.1699 6.13281 51.9922 6.32422 51.7734 6.50781C51.5547 6.6875 51.2871 6.83398 50.9707 6.94727C50.6582 7.06055 50.2949 7.11719 49.8809 7.11719ZM54.5977 0.660156L55.8047 2.76367L57.0352 0.660156H58.5879L56.666 3.77148L58.6641 7H57.1113L55.8223 4.80859L54.5332 7H52.9746L54.9668 3.77148L53.0508 0.660156H54.5977ZM63.8848 3.30859V4.42188H60.6035V3.30859H63.8848ZM61.0137 0.660156V7H59.6016V0.660156H61.0137ZM64.9043 0.660156V7H63.4922V0.660156H64.9043ZM66.1406 3.90039V3.76562C66.1406 3.30859 66.207 2.88477 66.3398 2.49414C66.4727 2.09961 66.6641 1.75781 66.9141 1.46875C67.168 1.17578 67.4766 0.949219 67.8398 0.789062C68.207 0.625 68.6211 0.542969 69.082 0.542969C69.5469 0.542969 69.9609 0.625 70.3242 0.789062C70.6914 0.949219 71.002 1.17578 71.2559 1.46875C71.5098 1.75781 71.7031 2.09961 71.8359 2.49414C71.9688 2.88477 72.0352 3.30859 72.0352 3.76562V3.90039C72.0352 4.35742 71.9688 4.78125 71.8359 5.17188C71.7031 5.5625 71.5098 5.9043 71.2559 6.19727C71.002 6.48633 70.6934 6.71289 70.3301 6.87695C69.9668 7.03711 69.5547 7.11719 69.0938 7.11719C68.6289 7.11719 68.2129 7.03711 67.8457 6.87695C67.4824 6.71289 67.1738 6.48633 66.9199 6.19727C66.666 5.9043 66.4727 5.5625 66.3398 5.17188C66.207 4.78125 66.1406 4.35742 66.1406 3.90039ZM67.5527 3.76562V3.90039C67.5527 4.18555 67.582 4.45508 67.6406 4.70898C67.6992 4.96289 67.791 5.18555 67.916 5.37695C68.041 5.56836 68.2012 5.71875 68.3965 5.82812C68.5918 5.9375 68.8242 5.99219 69.0938 5.99219C69.3555 5.99219 69.582 5.9375 69.7734 5.82812C69.9688 5.71875 70.1289 5.56836 70.2539 5.37695C70.3789 5.18555 70.4707 4.96289 70.5293 4.70898C70.5918 4.45508 70.623 4.18555 70.623 3.90039V3.76562C70.623 3.48438 70.5918 3.21875 70.5293 2.96875C70.4707 2.71484 70.377 2.49023 70.248 2.29492C70.123 2.09961 69.9629 1.94727 69.7676 1.83789C69.5762 1.72461 69.3477 1.66797 69.082 1.66797C68.8164 1.66797 68.5859 1.72461 68.3906 1.83789C68.1992 1.94727 68.041 2.09961 67.916 2.29492C67.791 2.49023 67.6992 2.71484 67.6406 2.96875C67.582 3.21875 67.5527 3.48438 67.5527 3.76562ZM77.3848 0.660156V1.78516H74.291V0.660156H77.3848ZM78.4922 0.660156V7H77.0801V0.660156H78.4922ZM73.9453 0.660156H75.3398L75.1699 3.79492C75.1465 4.25977 75.0996 4.66992 75.0293 5.02539C74.9629 5.37695 74.873 5.67969 74.7598 5.93359C74.6465 6.18359 74.5078 6.38672 74.3438 6.54297C74.1797 6.69922 73.9883 6.81445 73.7695 6.88867C73.5508 6.96289 73.3047 7 73.0312 7H72.5918L72.5859 5.83984L72.8086 5.82227C72.9531 5.81055 73.0781 5.77344 73.1836 5.71094C73.2891 5.64453 73.3789 5.55078 73.4531 5.42969C73.5312 5.30859 73.5938 5.15234 73.6406 4.96094C73.6914 4.76953 73.7305 4.54297 73.7578 4.28125C73.7891 4.01953 73.8125 3.71484 73.8281 3.36719L73.9453 0.660156ZM79.7227 3.90039V3.76562C79.7227 3.30859 79.7891 2.88477 79.9219 2.49414C80.0547 2.09961 80.2461 1.75781 80.4961 1.46875C80.75 1.17578 81.0586 0.949219 81.4219 0.789062C81.7891 0.625 82.2031 0.542969 82.6641 0.542969C83.1289 0.542969 83.543 0.625 83.9062 0.789062C84.2734 0.949219 84.584 1.17578 84.8379 1.46875C85.0918 1.75781 85.2852 2.09961 85.418 2.49414C85.5508 2.88477 85.6172 3.30859 85.6172 3.76562V3.90039C85.6172 4.35742 85.5508 4.78125 85.418 5.17188C85.2852 5.5625 85.0918 5.9043 84.8379 6.19727C84.584 6.48633 84.2754 6.71289 83.9121 6.87695C83.5488 7.03711 83.1367 7.11719 82.6758 7.11719C82.2109 7.11719 81.7949 7.03711 81.4277 6.87695C81.0645 6.71289 80.7559 6.48633 80.502 6.19727C80.248 5.9043 80.0547 5.5625 79.9219 5.17188C79.7891 4.78125 79.7227 4.35742 79.7227 3.90039ZM81.1348 3.76562V3.90039C81.1348 4.18555 81.1641 4.45508 81.2227 4.70898C81.2812 4.96289 81.373 5.18555 81.498 5.37695C81.623 5.56836 81.7832 5.71875 81.9785 5.82812C82.1738 5.9375 82.4062 5.99219 82.6758 5.99219C82.9375 5.99219 83.1641 5.9375 83.3555 5.82812C83.5508 5.71875 83.7109 5.56836 83.8359 5.37695C83.9609 5.18555 84.0527 4.96289 84.1113 4.70898C84.1738 4.45508 84.2051 4.18555 84.2051 3.90039V3.76562C84.2051 3.48438 84.1738 3.21875 84.1113 2.96875C84.0527 2.71484 83.959 2.49023 83.8301 2.29492C83.7051 2.09961 83.5449 1.94727 83.3496 1.83789C83.1582 1.72461 82.9297 1.66797 82.6641 1.66797C82.3984 1.66797 82.168 1.72461 81.9727 1.83789C81.7812 1.94727 81.623 2.09961 81.498 2.29492C81.373 2.49023 81.2812 2.71484 81.2227 2.96875C81.1641 3.21875 81.1348 3.48438 81.1348 3.76562ZM91.0195 0.660156V1.78516H88.2539V7H86.8418V0.660156H91.0195ZM93.2988 4.9375L95.7891 0.660156H97.2012V7H95.7891V2.7168L93.2988 7H91.8867V0.660156H93.2988V4.9375ZM100.154 4.9375L102.645 0.660156H104.057V7H102.645V2.7168L100.154 7H98.7422V0.660156H100.154V4.9375Z" fill="white" fill-opacity="0.7"/>
</svg>
